<svg width="16" height="16" viewBox="0 0 16 16" fill="none" xmlns="http://www.w3.org/2000/svg">
<mask id="mask0_801_247" style="mask-type:alpha" maskUnits="userSpaceOnUse" x="0" y="0" width="16" height="16">
<rect width="16" height="16" fill="#D9D9D9"/>
</mask>
<g mask="url(#mask0_801_247)">
<path d="M7.99984 14.3334C7.1315 14.3334 6.31206 14.167 5.5415 13.8341C4.77095 13.5012 4.09895 13.048 3.5255 12.4744C2.95195 11.901 2.49873 11.229 2.16584 10.4584C1.83295 9.68786 1.6665 8.86841 1.6665 8.00008C1.6665 7.12486 1.83295 6.30369 2.16584 5.53658C2.49873 4.76947 2.95195 4.09919 3.5255 3.52575C4.09895 2.95219 4.77095 2.49897 5.5415 2.16608C6.31206 1.83319 7.1315 1.66675 7.99984 1.66675C8.87506 1.66675 9.69623 1.83319 10.4633 2.16608C11.2304 2.49897 11.9007 2.95219 12.4742 3.52575C13.0477 4.09919 13.5009 4.76947 13.8338 5.53658C14.1667 6.30369 14.3332 7.12486 14.3332 8.00008C14.3332 8.86841 14.1667 9.68786 13.8338 10.4584C13.5009 11.229 13.0477 11.901 12.4742 12.4744C11.9007 13.048 11.2304 13.5012 10.4633 13.8341C9.69623 14.167 8.87506 14.3334 7.99984 14.3334ZM7.99984 13.3192C8.34006 12.868 8.62639 12.4129 8.85884 11.9539C9.09128 11.4949 9.28061 10.9932 9.42684 10.4487H6.57284C6.72761 11.0103 6.91912 11.5206 7.14734 11.9796C7.37545 12.4386 7.65961 12.8851 7.99984 13.3192ZM6.70884 13.1359C6.45328 12.7692 6.22378 12.3524 6.02034 11.8854C5.81689 11.4183 5.65878 10.9394 5.546 10.4487H3.2845C3.63661 11.1411 4.10884 11.7227 4.70117 12.1937C5.2935 12.6646 5.96273 12.9787 6.70884 13.1359ZM9.29084 13.1359C10.0369 12.9787 10.7062 12.6646 11.2985 12.1937C11.8908 11.7227 12.3631 11.1411 12.7152 10.4487H10.4537C10.3194 10.9436 10.1506 11.4246 9.94717 11.8917C9.74384 12.3589 9.52506 12.7736 9.29084 13.1359ZM2.86517 9.44875H5.3435C5.30161 9.20097 5.27123 8.95803 5.25234 8.71991C5.23356 8.48191 5.22417 8.24197 5.22417 8.00008C5.22417 7.75819 5.23356 7.51825 5.25234 7.28025C5.27123 7.04214 5.30161 6.79919 5.3435 6.55141H2.86517C2.80106 6.77786 2.75195 7.0133 2.71784 7.25775C2.68361 7.50219 2.6665 7.74964 2.6665 8.00008C2.6665 8.25053 2.68361 8.49797 2.71784 8.74241C2.75195 8.98686 2.80106 9.2223 2.86517 9.44875ZM6.34334 9.44875H9.65634C9.69812 9.20097 9.72845 8.96019 9.74734 8.72641C9.76611 8.49264 9.7755 8.25053 9.7755 8.00008C9.7755 7.74964 9.76611 7.50752 9.74734 7.27375C9.72845 7.03997 9.69812 6.79919 9.65634 6.55141H6.34334C6.30156 6.79919 6.27123 7.03997 6.25234 7.27375C6.23356 7.50752 6.22417 7.74964 6.22417 8.00008C6.22417 8.25053 6.23356 8.49264 6.25234 8.72641C6.27123 8.96019 6.30156 9.20097 6.34334 9.44875ZM10.6562 9.44875H13.1345C13.1986 9.2223 13.2477 8.98686 13.2818 8.74241C13.3161 8.49797 13.3332 8.25053 13.3332 8.00008C13.3332 7.74964 13.3161 7.50219 13.2818 7.25775C13.2477 7.0133 13.1986 6.77786 13.1345 6.55141H10.6562C10.6981 6.79919 10.7284 7.04214 10.7473 7.28025C10.7661 7.51825 10.7755 7.75819 10.7755 8.00008C10.7755 8.24197 10.7661 8.48191 10.7473 8.71991C10.7284 8.95803 10.6981 9.20097 10.6562 9.44875ZM10.4537 5.55141H12.7152C12.3588 4.85053 11.8898 4.26886 11.3082 3.80641C10.7265 3.34408 10.0541 3.02786 9.29084 2.85775C9.54639 3.24575 9.77373 3.67014 9.97284 4.13091C10.1721 4.59158 10.3323 5.06508 10.4537 5.55141ZM6.57284 5.55141H9.42684C9.27206 4.99408 9.07739 4.48058 8.84284 4.01092C8.60817 3.54125 8.32717 3.09791 7.99984 2.68091C7.6725 3.09791 7.3915 3.54125 7.15684 4.01092C6.92228 4.48058 6.72761 4.99408 6.57284 5.55141ZM3.2845 5.55141H5.546C5.66734 5.06508 5.82761 4.59158 6.02684 4.13091C6.22595 3.67014 6.45328 3.24575 6.70884 2.85775C5.94128 3.02786 5.26778 3.34519 4.68834 3.80975C4.10878 4.27419 3.64084 4.85475 3.2845 5.55141Z" fill="white" fill-opacity="0.8"/>
</g>
</svg>
