<svg width="16" height="16" viewBox="0 0 16 16" fill="none" xmlns="http://www.w3.org/2000/svg">
<path d="M7.98789 1C4.30424 1 1.28658 3.83544 1 7.4385L4.75832 8.98973C5.07669 8.77212 5.46166 8.64535 5.87538 8.64535C5.91271 8.64535 5.94955 8.64635 5.98587 8.64834L7.65742 6.22966V6.19572C7.65742 4.74032 8.84359 3.55594 10.3017 3.55594C11.7598 3.55594 12.946 4.74032 12.946 6.19572C12.946 7.65112 11.7598 8.83601 10.3017 8.83601C10.2815 8.83601 10.2619 8.83551 10.2417 8.83501L7.85772 10.5325C7.85923 10.5639 7.86024 10.5954 7.86024 10.6263C7.86024 11.7194 6.96973 12.6083 5.87538 12.6083C4.91473 12.6083 4.111 11.9235 3.92936 11.0171L1.24117 9.90759C2.07366 12.8458 4.778 15 7.98789 15C11.8607 15 15 11.8656 15 8C15 4.1339 11.8607 1 7.98789 1ZM5.39425 11.6213L4.533 11.266C4.68537 11.5834 4.94975 11.8489 5.3004 11.9947C6.05822 12.3101 6.93209 11.9512 7.24793 11.1941C7.40081 10.8278 7.40182 10.4235 7.25045 10.0561C7.09909 9.68878 6.81302 9.4023 6.44622 9.24957C6.08143 9.09834 5.69092 9.10383 5.34783 9.2331L6.23784 9.60044C6.79687 9.83303 7.06125 10.4739 6.82815 11.0319C6.59556 11.5899 5.95328 11.8539 5.39425 11.6213ZM12.0638 6.19577C12.0638 5.226 11.2732 4.43641 10.3019 4.43641C9.33017 4.43641 8.53956 5.226 8.53956 6.19577C8.53956 7.16554 9.33017 7.95463 10.3019 7.95463C11.2732 7.95463 12.0638 7.16554 12.0638 6.19577ZM8.98103 6.19278C8.98103 5.46308 9.57386 4.87164 10.3044 4.87164C11.0355 4.87164 11.6284 5.46308 11.6284 6.19278C11.6284 6.92247 11.0355 7.51392 10.3044 7.51392C9.57386 7.51392 8.98103 6.92247 8.98103 6.19278Z" fill="white" fill-opacity="0.8"/>
</svg>
