<svg width="197" height="196" viewBox="0 0 197 196" fill="none" xmlns="http://www.w3.org/2000/svg">
<circle cx="65.3975" cy="108.581" r="22.671" fill="#FF36A3"/>
<circle cx="100.787" cy="145.332" r="22.671" fill="#6E6E6E"/>
<circle cx="131.586" cy="110.401" r="24.4913" fill="#FF36A3"/>
<path fill-rule="evenodd" clip-rule="evenodd" d="M98.4033 14.8446L35.7478 35.7297C34.982 35.985 34.4851 36.7249 34.5385 37.5303L38.6749 99.9044C38.7076 100.399 38.5324 100.884 38.1915 101.243L19.405 121.04C18.7856 121.693 18.7529 122.706 19.329 123.397L44.301 153.364C44.8281 153.996 45.721 154.183 46.4574 153.815L59.6051 147.241C60.5335 146.777 61.6603 147.205 62.0458 148.169L71.7646 172.466C71.9654 172.968 72.3842 173.351 72.9021 173.506L98.4545 181.172C98.7871 181.272 99.1416 181.272 99.4741 181.172L124.931 173.535C125.502 173.364 125.949 172.917 126.121 172.346L133.34 148.283C133.644 147.268 134.764 146.744 135.738 147.162L151.513 153.922C152.234 154.231 153.072 154.03 153.575 153.427L178.612 123.383C179.183 122.698 179.157 121.695 178.551 121.041L160.208 101.234C159.88 100.88 159.711 100.407 159.739 99.9248L163.401 37.5202C163.448 36.7195 162.952 35.9868 162.191 35.7331L99.5254 14.8446C99.1612 14.7232 98.7674 14.7232 98.4033 14.8446ZM88.9942 143.581L98.0641 129.696C98.4884 129.046 99.4402 129.046 99.8645 129.696L108.934 143.581C109.22 144.017 109.15 144.596 108.77 144.953L105.09 148.405C104.616 148.85 103.86 148.776 103.481 148.248L99.8378 143.174C99.4088 142.577 98.5199 142.577 98.0909 143.174L94.4477 148.248C94.0689 148.776 93.3123 148.85 92.8385 148.405L89.1587 144.953C88.7783 144.596 88.7089 144.017 88.9942 143.581ZM66.798 129.15L80.4238 115.53L80.4188 115.525L83.8619 112.081C87.6238 108.319 87.6238 102.22 83.8619 98.4582C80.0999 94.6962 74.0006 94.6962 70.2386 98.4582L66.7955 101.901L63.3525 98.4583C59.5905 94.6963 53.4912 94.6963 49.7293 98.4583C45.9673 102.22 45.9673 108.32 49.7293 112.081L53.1723 115.525L53.1674 115.529L66.7882 129.15L66.798 129.15ZM131.135 129.15L144.761 115.53L144.756 115.525L148.199 112.081C151.961 108.319 151.961 102.22 148.199 98.4582C144.437 94.6962 138.338 94.6962 134.576 98.4582L131.133 101.901L127.689 98.4583C123.928 94.6963 117.828 94.6963 114.066 98.4583C110.304 102.22 110.304 108.32 114.066 112.081L117.509 115.525L117.504 115.529L131.125 129.15L131.135 129.15Z" fill="#1D1D1D"/>
</svg>
