<svg width="61" height="16" viewBox="0 0 61 16" fill="none" xmlns="http://www.w3.org/2000/svg">
<g opacity="0.6">
<path d="M53.5513 1.70117L53.7671 1.80908C54.2622 1.73714 54.6854 1.70117 55.0366 1.70117C55.1847 1.82389 55.6777 1.92969 56.5156 2.01855C57.1504 2.42904 57.4678 2.95801 57.4678 3.60547C57.4678 4.45605 57.0446 5.4082 56.1982 6.46191V6.56982C57.4847 6.56982 58.4009 7.31038 58.9468 8.7915V9.00098C58.9468 9.73307 58.4178 10.5794 57.3599 11.54C56.1242 12.4541 54.9266 12.9111 53.7671 12.9111C53.1577 12.7122 52.6986 12.361 52.3896 11.8574V11.3306H52.4976C52.8403 11.5379 53.2974 11.6416 53.8687 11.6416C54.6261 11.6416 55.6143 11.0788 56.833 9.95312C57.3239 9.42839 57.5693 8.93538 57.5693 8.47412C57.5693 8.11865 56.9705 7.87109 55.7729 7.73145C55.117 7.84994 54.66 8.02555 54.4019 8.2583H53.9766C53.6253 8.2583 53.4137 8.11865 53.3418 7.83936C53.4137 7.83936 53.4497 7.80339 53.4497 7.73145C53.3058 7.73145 53.2339 7.66162 53.2339 7.52197V7.41406C53.2381 7.34212 53.6274 7.02474 54.4019 6.46191C54.4019 5.99219 54.8949 5.46322 55.8809 4.875H55.9824L55.8809 4.34814L56.1982 3.28809C56.1982 2.98763 55.7751 2.81201 54.9287 2.76123C54.5309 2.76123 53.8602 3.04264 52.9165 3.60547H52.4976C52.2987 3.60547 52.1569 3.32406 52.0723 2.76123L53.5513 1.70117Z" fill="white"/>
<path d="M46.1919 2.64062H46.4014C48.1956 2.64062 49.8185 3.34521 51.27 4.75439C51.6213 5.24105 51.7969 5.7002 51.7969 6.13184V6.34131C51.7969 7.8182 50.9865 9.26335 49.3657 10.6768C48.257 11.7389 47.3387 12.3039 46.6108 12.3716H46.2998C45.1064 12.3716 44.2241 11.5252 43.6528 9.83252L43.3354 8.03613L43.4434 7.82666V7.19189C43.4434 5.93506 44.0781 4.66553 45.3477 3.3833C45.7708 3.34098 45.9824 3.12939 45.9824 2.74854L46.1919 2.64062ZM46.6108 3.70068V4.33545C46.4712 4.33545 45.9782 4.89827 45.1318 6.02393C44.8525 6.85335 44.7129 7.59391 44.7129 8.24561C44.8822 10.078 45.3392 10.9941 46.084 10.9941H46.5093C48.6548 9.62728 49.9941 8.14827 50.5273 6.55713V6.13184C50.5273 5.2347 49.2218 4.42432 46.6108 3.70068Z" fill="white"/>
<path d="M39.7925 2.58691C39.7925 2.7054 39.9681 2.8112 40.3193 2.9043C40.3193 2.83236 40.3553 2.79639 40.4272 2.79639C40.9901 3.29997 41.2715 3.86491 41.2715 4.49121C40.9668 5.78613 40.4378 6.77214 39.6846 7.44922C39.583 7.44922 39.4772 7.55501 39.3672 7.7666C40.2686 7.7666 40.7277 7.90837 40.7446 8.19189L40.9541 8.08398C42.2956 8.8457 42.9663 9.93962 42.9663 11.3657C42.9663 12.2629 41.7666 13.3906 39.3672 14.749C38.5716 15.0283 37.9728 15.168 37.5708 15.168C36.2547 15.168 35.3745 14.4274 34.9302 12.9463C34.9302 12.8617 34.8942 12.5104 34.8223 11.8926L34.9302 11.6768C34.8582 11.554 34.8223 11.4144 34.8223 11.2578C34.9365 10.2676 35.2899 9.31543 35.8823 8.40137C35.3153 7.98665 35.0317 7.1403 35.0317 5.8623C35.0317 5.25716 35.4211 4.41081 36.1997 3.32324C36.4959 2.94238 36.7414 2.73079 36.936 2.68848C36.936 2.7985 37.0778 2.94027 37.3613 3.11377H37.6787C38.0723 2.76253 38.7769 2.58691 39.7925 2.58691ZM36.3013 6.92236C36.3732 7.20166 36.5509 7.34131 36.8345 7.34131C37.5877 7.34131 38.4679 6.84831 39.4751 5.8623C39.8263 5.20638 40.002 4.71338 40.002 4.3833V4.27539L39.9004 3.74854H39.583C37.3952 4.05322 36.3013 5.11117 36.3013 6.92236ZM37.3613 9.14404C37.3613 9.0721 37.3254 9.03613 37.2534 9.03613C36.5509 9.66667 36.1997 10.8304 36.1997 12.5273V12.7368C36.3901 13.4435 36.6356 13.7969 36.936 13.7969H37.3613C38.7705 13.7969 40.1797 12.9505 41.5889 11.2578L41.6968 10.623C41.4979 9.49316 40.5098 8.92822 38.7324 8.92822L37.3613 9.14404Z" fill="white"/>
<path d="M32.7656 1H33.1909C33.6141 1.26237 33.8257 1.64958 33.8257 2.16162V2.9043C33.8257 3.69564 33.8595 4.71761 33.9272 5.97021L33.8257 6.17969C33.8257 6.25163 33.8595 6.2876 33.9272 6.2876C33.8595 6.42725 33.7199 8.40137 33.5083 12.21C33.2756 12.3496 33.064 12.4194 32.8735 12.4194H32.7656C32.4609 12.4194 32.2493 11.9264 32.1309 10.9404C32.2705 10.1533 32.4461 8.24902 32.6577 5.22754L32.5562 4.27539C32.6239 3.05664 32.6577 2.07064 32.6577 1.31738C32.7297 1.17773 32.7656 1.07194 32.7656 1Z" fill="white"/>
<path d="M21.3303 6.68701H21.6541C21.9333 7.35563 22.073 7.74284 22.073 7.84863H21.9714L22.073 8.06445V8.38184C22.073 8.53841 22.0391 8.68018 21.9714 8.80713C22.0391 8.92985 22.073 9.0695 22.073 9.22607H22.2888C22.7416 8.19352 23.095 7.52279 23.3489 7.21387C23.3489 7.16732 23.5245 7.02555 23.8757 6.78857H23.9836C24.7623 7.34294 25.1516 8.26335 25.1516 9.5498C25.0797 9.5498 25.0437 9.58366 25.0437 9.65137H25.3611C25.8308 8.61881 26.4317 7.73649 27.1638 7.00439H27.7986C28.3656 7.93962 28.6492 9.03353 28.6492 10.2861H28.5413L28.6492 10.502L28.5413 11.1367H28.6492C28.5053 11.3483 28.4333 11.6318 28.4333 11.9873H27.9065C27.7626 11.6699 27.6568 10.5739 27.5891 8.69922L27.2717 8.38184C27.2717 8.51302 26.9882 9.04199 26.4211 9.96875C26.2476 9.96875 25.8583 10.6056 25.2532 11.8794V12.0889H24.9358C24.5126 12.0889 24.301 11.8075 24.301 11.2446V9.96875C24.301 9.61328 24.1952 9.04834 23.9836 8.27393C23.3531 8.99333 22.7882 10.3009 22.2888 12.1968H22.3904C22.3438 12.62 22.2042 12.8315 21.9714 12.8315C21.4763 12.8315 21.2288 12.4084 21.2288 11.562V10.0767L21.1208 8.80713H21.2288L21.1208 8.59131V6.89648C21.142 6.75684 21.2118 6.68701 21.3303 6.68701Z" fill="white"/>
<path d="M15.213 7.93841L15.2803 7.85407C16.2572 6.63045 17.3262 6.30885 18.4873 6.88928L18.656 7.02393C19.1151 7.52046 19.4074 8.34133 19.5328 9.48653C19.4065 10.7774 19.0873 11.7436 18.5751 12.3852C17.8271 13.2338 17.1721 13.4337 16.6099 12.9849L16.1138 12.5889C15.7103 12.2668 15.2902 11.4331 14.8533 10.088C14.559 9.853 14.6789 9.13647 15.213 7.93841ZM16.7078 11.8448C16.93 11.9463 17.2287 11.9113 17.6039 11.7398L17.8019 11.4917C18.2376 10.9461 18.4614 10.0418 18.4733 8.77878C18.4008 8.266 18.2901 7.9502 18.1413 7.83139C17.837 7.58849 17.1635 7.86574 16.1208 8.66316C15.6957 9.1956 15.8914 10.2561 16.7078 11.8448Z" fill="white"/>
<path d="M10.7174 7.0723L10.8222 7.04641C12.3422 6.67079 13.386 7.06672 13.9534 8.23421L14.0052 8.44373C14.067 9.11719 13.7989 9.94627 13.201 10.931C12.3147 11.8779 11.4731 12.4499 10.6761 12.6469C9.566 12.8645 8.92467 12.6241 8.75208 11.9257L8.59981 11.3095C8.47595 10.8083 8.65036 9.89122 9.12303 8.55824C9.03268 8.19261 9.56414 7.69729 10.7174 7.0723ZM9.52415 11.0811C9.63852 11.2969 9.89674 11.4511 10.2988 11.5435L10.6069 11.4674C11.2848 11.2999 12.013 10.7189 12.7917 9.7244C13.0464 9.2735 13.1509 8.95561 13.1052 8.77074C13.0118 8.39279 12.3088 8.20254 10.9961 8.2C10.3347 8.36344 9.84402 9.32381 9.52415 11.0811Z" fill="white"/>
<path d="M2.45215 3.70068H2.76953C3.14616 3.70068 3.39372 3.84033 3.51221 4.11963V4.43701L3.4043 4.97021H3.51221L4.77539 4.22754C4.84733 4.22754 4.8833 4.26351 4.8833 4.33545L5.94336 4.22754H6.99707C7.77572 4.36719 8.16504 4.72054 8.16504 5.2876V5.70654C8.16504 6.72217 6.93148 8.23926 4.46436 10.2578C5.94124 11.5824 6.99707 12.2869 7.63184 12.3716L7.73975 12.5811V12.7969C7.73975 12.9704 7.35254 13.11 6.57812 13.2158C5.82064 12.8646 4.97428 12.2658 4.03906 11.4194C3.75553 11.1359 3.36833 10.8883 2.87744 10.6768V11.9463C2.87744 12.5472 2.94727 13.2878 3.08691 14.168C3.0446 14.5234 2.83301 14.7012 2.45215 14.7012C1.81738 14.5319 1.5 13.5078 1.5 11.6289V11.5273C1.57194 9.93197 1.60791 8.94385 1.60791 8.56299C1.67562 8.3514 1.74544 8.24561 1.81738 8.24561C1.74544 7.86051 1.70947 7.5791 1.70947 7.40137C1.70947 7.29134 1.85124 6.48096 2.13477 4.97021H2.02686C2.18766 4.12386 2.32943 3.70068 2.45215 3.70068ZM2.979 9.62305C3.57992 9.38607 4.10889 8.92692 4.56592 8.24561C4.98063 8.17367 5.72119 7.32731 6.7876 5.70654C6.7876 5.56689 6.82357 5.49707 6.89551 5.49707C6.86589 5.30664 6.68815 5.16488 6.3623 5.07178C5.2028 5.07178 4.111 5.84831 3.08691 7.40137C3.08691 7.81608 3.05094 8.55664 2.979 9.62305Z" fill="white"/>
</g>
</svg>
