<svg width="20" height="20" viewBox="0 0 20 20" fill="none" xmlns="http://www.w3.org/2000/svg">
<mask id="mask0_1238_447" style="mask-type:alpha" maskUnits="userSpaceOnUse" x="0" y="0" width="20" height="20">
<rect width="20" height="20" fill="#D9D9D9"/>
</mask>
<g mask="url(#mask0_1238_447)">
<path d="M12.5023 4.25C12.223 4.25 11.9861 4.15354 11.7917 3.96062C11.5972 3.76785 11.5 3.53174 11.5 3.25229C11.5 2.97299 11.5965 2.73611 11.7894 2.54167C11.9822 2.34722 12.2183 2.25 12.4977 2.25C12.777 2.25 13.0139 2.34646 13.2083 2.53938C13.4028 2.73215 13.5 2.96826 13.5 3.24771C13.5 3.52701 13.4035 3.76389 13.2106 3.95833C13.0178 4.15278 12.7817 4.25 12.5023 4.25ZM12.5023 17.75C12.223 17.75 11.9861 17.6535 11.7917 17.4606C11.5972 17.2678 11.5 17.0317 11.5 16.7523C11.5 16.473 11.5965 16.2361 11.7894 16.0417C11.9822 15.8472 12.2183 15.75 12.4977 15.75C12.777 15.75 13.0139 15.8465 13.2083 16.0394C13.4028 16.2322 13.5 16.4683 13.5 16.7477C13.5 17.027 13.4035 17.2639 13.2106 17.4583C13.0178 17.6528 12.7817 17.75 12.5023 17.75ZM16.0023 7.25C15.723 7.25 15.4861 7.15354 15.2917 6.96062C15.0972 6.76785 15 6.53174 15 6.25229C15 5.97299 15.0965 5.73611 15.2894 5.54167C15.4822 5.34722 15.7183 5.25 15.9977 5.25C16.277 5.25 16.5139 5.34646 16.7083 5.53938C16.9028 5.73215 17 5.96826 17 6.24771C17 6.52701 16.9035 6.76389 16.7106 6.95833C16.5178 7.15278 16.2817 7.25 16.0023 7.25ZM16.0023 14.75C15.723 14.75 15.4861 14.6535 15.2917 14.4606C15.0972 14.2678 15 14.0317 15 13.7523C15 13.473 15.0965 13.2361 15.2894 13.0417C15.4822 12.8472 15.7183 12.75 15.9977 12.75C16.277 12.75 16.5139 12.8465 16.7083 13.0394C16.9028 13.2322 17 13.4683 17 13.7477C17 14.027 16.9035 14.2639 16.7106 14.4583C16.5178 14.6528 16.2817 14.75 16.0023 14.75ZM17.0023 11C16.723 11 16.4861 10.9035 16.2917 10.7106C16.0972 10.5178 16 10.2817 16 10.0023C16 9.72299 16.0965 9.48611 16.2894 9.29167C16.4822 9.09722 16.7183 9 16.9977 9C17.277 9 17.5139 9.09646 17.7083 9.28938C17.9028 9.48215 18 9.71826 18 9.99771C18 10.277 17.9035 10.5139 17.7106 10.7083C17.5178 10.9028 17.2817 11 17.0023 11ZM10 18C8.8975 18 7.86146 17.7917 6.89188 17.375C5.92229 16.9583 5.07292 16.3854 4.34375 15.6562C3.61458 14.9271 3.04167 14.0767 2.625 13.105C2.20833 12.1333 2 11.0951 2 9.99042C2 8.88569 2.20833 7.85069 2.625 6.88542C3.04167 5.92014 3.61458 5.07292 4.34375 4.34375C5.07292 3.61458 5.92229 3.04167 6.89188 2.625C7.86146 2.20833 8.8975 2 10 2V3.5C8.19444 3.5 6.65972 4.13194 5.39583 5.39583C4.13194 6.65972 3.5 8.19444 3.5 10C3.5 11.8056 4.13194 13.3403 5.39583 14.6042C6.65972 15.8681 8.19444 16.5 10 16.5V18ZM9.99563 11.5C9.58188 11.5 9.22917 11.3531 8.9375 11.0594C8.64583 10.7656 8.5 10.4125 8.5 10V9.80208C8.5 9.73958 8.51389 9.67361 8.54167 9.60417L7 8.0625L8.0625 7L9.60417 8.54167C9.6875 8.51389 9.81944 8.5 10 8.5C10.4125 8.5 10.7656 8.64729 11.0594 8.94188C11.3531 9.23646 11.5 9.59063 11.5 10.0044C11.5 10.4181 11.3527 10.7708 11.0581 11.0625C10.7635 11.3542 10.4094 11.5 9.99563 11.5Z" fill="white"/>
</g>
</svg>
